<mxfile host="app.diagrams.net" modified="2020-12-01T12:47:43.939Z" agent="5.0 (Macintosh; Intel Mac OS X 10_14_6) AppleWebKit/537.36 (KHTML, like Gecko) Chrome/86.0.4240.198 Safari/537.36" etag="BSn7FmTDD5qQZzce7Tk8" version="13.10.4" type="github">
  <diagram name="Page-1" id="74e2e168-ea6b-b213-b513-2b3c1d86103e">
    <mxGraphModel dx="1186" dy="668" grid="0" gridSize="10" guides="1" tooltips="1" connect="1" arrows="1" fold="1" page="1" pageScale="1" pageWidth="1100" pageHeight="850" background="#ffffff" math="0" shadow="0">
      <root>
        <mxCell id="0" />
        <mxCell id="1" parent="0" />
        <mxCell id="NaYy3AESOwR2lzzwJQWo-8" style="edgeStyle=orthogonalEdgeStyle;rounded=0;orthogonalLoop=1;jettySize=auto;html=1;exitX=0.5;exitY=1;exitDx=0;exitDy=0;entryX=0.5;entryY=0;entryDx=0;entryDy=0;" parent="1" source="NaYy3AESOwR2lzzwJQWo-1" target="NaYy3AESOwR2lzzwJQWo-2" edge="1">
          <mxGeometry relative="1" as="geometry" />
        </mxCell>
        <mxCell id="NaYy3AESOwR2lzzwJQWo-1" value="&lt;b&gt;聚合风控&lt;br&gt;(mmpayriskaggr4closelooptransfer)&lt;/b&gt;" style="rounded=0;whiteSpace=wrap;html=1;" parent="1" vertex="1">
          <mxGeometry x="400" y="40" width="240" height="50" as="geometry" />
        </mxCell>
        <mxCell id="NaYy3AESOwR2lzzwJQWo-9" style="edgeStyle=orthogonalEdgeStyle;rounded=0;orthogonalLoop=1;jettySize=auto;html=1;" parent="1" source="NaYy3AESOwR2lzzwJQWo-2" target="NaYy3AESOwR2lzzwJQWo-3" edge="1">
          <mxGeometry relative="1" as="geometry" />
        </mxCell>
        <mxCell id="NaYy3AESOwR2lzzwJQWo-10" style="edgeStyle=orthogonalEdgeStyle;rounded=0;orthogonalLoop=1;jettySize=auto;html=1;" parent="1" source="NaYy3AESOwR2lzzwJQWo-2" target="NaYy3AESOwR2lzzwJQWo-4" edge="1">
          <mxGeometry relative="1" as="geometry" />
        </mxCell>
        <mxCell id="NaYy3AESOwR2lzzwJQWo-2" value="数据中心反欺诈接入服务&lt;br&gt;(&lt;span style=&quot;color: rgb(55 , 55 , 55) ; font-weight: 700 ; background-color: rgb(255 , 255 , 255)&quot;&gt;&lt;font style=&quot;font-size: 9px&quot;&gt;mmpayantifraudspbeforepayment&lt;/font&gt;&lt;/span&gt;)" style="rounded=0;whiteSpace=wrap;html=1;" parent="1" vertex="1">
          <mxGeometry x="400" y="150" width="240" height="50" as="geometry" />
        </mxCell>
        <mxCell id="MpI3QeL886zPPigBhd5A-1" style="edgeStyle=orthogonalEdgeStyle;rounded=0;orthogonalLoop=1;jettySize=auto;html=1;" edge="1" parent="1" source="NaYy3AESOwR2lzzwJQWo-3" target="NaYy3AESOwR2lzzwJQWo-4">
          <mxGeometry relative="1" as="geometry" />
        </mxCell>
        <mxCell id="NaYy3AESOwR2lzzwJQWo-3" value="数据中心反欺诈数据上报MQ&lt;br&gt;(&lt;span style=&quot;color: rgb(55 , 55 , 55) ; font-weight: 700 ; background-color: rgb(255 , 255 , 255)&quot;&gt;&lt;font style=&quot;font-size: 9px&quot;&gt;mmpayantifraudspbeforereport&lt;/font&gt;&lt;/span&gt;)" style="rounded=0;whiteSpace=wrap;html=1;" parent="1" vertex="1">
          <mxGeometry x="230" y="240" width="210" height="70" as="geometry" />
        </mxCell>
        <mxCell id="NaYy3AESOwR2lzzwJQWo-11" style="edgeStyle=orthogonalEdgeStyle;rounded=0;orthogonalLoop=1;jettySize=auto;html=1;" parent="1" source="NaYy3AESOwR2lzzwJQWo-4" target="NaYy3AESOwR2lzzwJQWo-6" edge="1">
          <mxGeometry relative="1" as="geometry" />
        </mxCell>
        <mxCell id="NaYy3AESOwR2lzzwJQWo-12" style="edgeStyle=orthogonalEdgeStyle;rounded=0;orthogonalLoop=1;jettySize=auto;html=1;" parent="1" source="NaYy3AESOwR2lzzwJQWo-4" target="NaYy3AESOwR2lzzwJQWo-5" edge="1">
          <mxGeometry relative="1" as="geometry" />
        </mxCell>
        <mxCell id="NaYy3AESOwR2lzzwJQWo-4" value="&lt;font style=&quot;font-size: 12px&quot;&gt;数据中心决策引擎&lt;br&gt;(&lt;b&gt;mmspamruleenginepayfinancerisk&lt;/b&gt;)&lt;/font&gt;" style="rounded=0;whiteSpace=wrap;html=1;" parent="1" vertex="1">
          <mxGeometry x="560" y="240" width="230" height="70" as="geometry" />
        </mxCell>
        <mxCell id="NaYy3AESOwR2lzzwJQWo-5" value="&lt;font style=&quot;font-size: 12px&quot;&gt;数据中心决策引擎上报MQ&lt;br&gt;(&lt;b&gt;mmspamrulemq&lt;/b&gt;)&lt;/font&gt;" style="rounded=0;whiteSpace=wrap;html=1;" parent="1" vertex="1">
          <mxGeometry x="750" y="360" width="150" height="70" as="geometry" />
        </mxCell>
        <mxCell id="NaYy3AESOwR2lzzwJQWo-13" style="edgeStyle=orthogonalEdgeStyle;rounded=0;orthogonalLoop=1;jettySize=auto;html=1;" parent="1" source="NaYy3AESOwR2lzzwJQWo-6" target="NaYy3AESOwR2lzzwJQWo-7" edge="1">
          <mxGeometry relative="1" as="geometry" />
        </mxCell>
        <mxCell id="NaYy3AESOwR2lzzwJQWo-6" value="&lt;font style=&quot;font-size: 12px&quot;&gt;数据中心决策引擎数据查询服务&lt;br&gt;(&lt;b&gt;mmpayfinanceriskdwdataquerysvr&lt;/b&gt;)&lt;/font&gt;" style="rounded=0;whiteSpace=wrap;html=1;" parent="1" vertex="1">
          <mxGeometry x="460" y="360" width="220" height="68" as="geometry" />
        </mxCell>
        <mxCell id="NaYy3AESOwR2lzzwJQWo-7" value="&lt;font style=&quot;font-size: 12px&quot;&gt;数据中心featurekv&lt;br&gt;(&lt;b&gt;mmpaydcfeaturekv&lt;/b&gt;)&lt;/font&gt;" style="rounded=0;whiteSpace=wrap;html=1;" parent="1" vertex="1">
          <mxGeometry x="460" y="470" width="220" height="50" as="geometry" />
        </mxCell>
      </root>
    </mxGraphModel>
  </diagram>
</mxfile>
